solid box (2-3)
   facet normal 0.000000e+000 -1.000000e+000 0.000000e+000
      outer loop
         vertex 6.325000e+001 0.000000e+000 3.875000e+001
         vertex 3.250000e+000 0.000000e+000 3.875000e+001
         vertex 1.500000e+000 0.000000e+000 3.568750e+001
      endloop
   endfacet
   facet normal 0.000000e+000 -1.000000e+000 0.000000e+000
      outer loop
         vertex 6.325000e+001 0.000000e+000 3.875000e+001
         vertex 1.500000e+000 0.000000e+000 3.568750e+001
         vertex 6.500001e+001 0.000000e+000 3.568750e+001
      endloop
   endfacet
   facet normal 0.000000e+000 -1.000000e+000 0.000000e+000
      outer loop
         vertex 6.500001e+001 0.000000e+000 3.568750e+001
         vertex 1.500000e+000 0.000000e+000 3.568750e+001
         vertex 1.500000e+000 0.000000e+000 3.062500e+000
      endloop
   endfacet
   facet normal 0.000000e+000 -1.000000e+000 0.000000e+000
      outer loop
         vertex 6.500001e+001 0.000000e+000 3.568750e+001
         vertex 1.500000e+000 0.000000e+000 3.062500e+000
         vertex 6.500001e+001 0.000000e+000 3.062500e+000
      endloop
   endfacet
   facet normal 0.000000e+000 -1.000000e+000 0.000000e+000
      outer loop
         vertex 6.500001e+001 0.000000e+000 3.062500e+000
         vertex 1.500000e+000 0.000000e+000 3.062500e+000
         vertex 3.250000e+000 0.000000e+000 0.000000e+000
      endloop
   endfacet
   facet normal 0.000000e+000 -1.000000e+000 0.000000e+000
      outer loop
         vertex 6.500001e+001 0.000000e+000 3.062500e+000
         vertex 3.250000e+000 0.000000e+000 0.000000e+000
         vertex 6.325000e+001 0.000000e+000 0.000000e+000
      endloop
   endfacet
   facet normal 9.998919e-001 -1.470429e-002 0.000000e+000
      outer loop
         vertex 6.525000e+001 1.700000e+001 3.875000e+001
         vertex 6.524706e+001 1.680045e+001 3.875000e+001
         vertex 6.525000e+001 1.700000e+001 -1.387779e-014
      endloop
   endfacet
   facet normal 9.998919e-001 -1.470429e-002 0.000000e+000
      outer loop
         vertex 6.525000e+001 1.700000e+001 -1.387779e-014
         vertex 6.524706e+001 1.680045e+001 3.875000e+001
         vertex 6.522794e+001 1.550000e+001 3.528860e+001
      endloop
   endfacet
   facet normal 9.998919e-001 -1.470429e-002 0.000000e+000
      outer loop
         vertex 6.524706e+001 1.680045e+001 -1.387779e-014
         vertex 6.525000e+001 1.700000e+001 -1.387779e-014
         vertex 6.522794e+001 1.550000e+001 3.461397e+000
      endloop
   endfacet
   facet normal 9.998919e-001 -1.470429e-002 0.000000e+000
      outer loop
         vertex 6.522794e+001 1.550000e+001 3.461397e+000
         vertex 6.525000e+001 1.700000e+001 -1.387779e-014
         vertex 6.522794e+001 1.550000e+001 3.528860e+001
      endloop
   endfacet
   facet normal 9.998919e-001 -1.470429e-002 0.000000e+000
      outer loop
         vertex 6.522794e+001 1.550000e+001 3.461397e+000
         vertex 6.522794e+001 1.550000e+001 3.528860e+001
         vertex 6.500001e+001 3.252607e-016 3.062500e+000
      endloop
   endfacet
   facet normal 9.998919e-001 -1.470429e-002 0.000000e+000
      outer loop
         vertex 6.500001e+001 3.252607e-016 3.062500e+000
         vertex 6.522794e+001 1.550000e+001 3.528860e+001
         vertex 6.500001e+001 1.084202e-016 3.568750e+001
      endloop
   endfacet
   facet normal 0.000000e+000 0.000000e+000 1.000000e+000
      outer loop
         vertex 1.250000e+000 1.700000e+001 3.875000e+001
         vertex 1.252935e+000 1.680045e+001 3.875000e+001
         vertex 3.250000e+000 1.550000e+001 3.875000e+001
      endloop
   endfacet
   facet normal 0.000000e+000 0.000000e+000 1.000000e+000
      outer loop
         vertex 3.250000e+000 1.550000e+001 3.875000e+001
         vertex 3.250000e+000 0.000000e+000 3.875000e+001
         vertex 6.325000e+001 0.000000e+000 3.875000e+001
      endloop
   endfacet
   facet normal 0.000000e+000 0.000000e+000 1.000000e+000
      outer loop
         vertex 6.650000e+001 3.440000e+001 3.875000e+001
         vertex 0.000000e+000 3.440000e+001 3.875000e+001
         vertex 1.250000e-001 2.570000e+001 3.875000e+001
      endloop
   endfacet
   facet normal 0.000000e+000 0.000000e+000 1.000000e+000
      outer loop
         vertex 6.325000e+001 0.000000e+000 3.875000e+001
         vertex 6.325000e+001 1.550000e+001 3.875000e+001
         vertex 3.250000e+000 1.550000e+001 3.875000e+001
      endloop
   endfacet
   facet normal 0.000000e+000 0.000000e+000 1.000000e+000
      outer loop
         vertex 3.250000e+000 1.550000e+001 3.875000e+001
         vertex 6.325000e+001 1.550000e+001 3.875000e+001
         vertex 6.524706e+001 1.680045e+001 3.875000e+001
      endloop
   endfacet
   facet normal 0.000000e+000 0.000000e+000 1.000000e+000
      outer loop
         vertex 3.250000e+000 1.550000e+001 3.875000e+001
         vertex 6.524706e+001 1.680045e+001 3.875000e+001
         vertex 6.525000e+001 1.700000e+001 3.875000e+001
      endloop
   endfacet
   facet normal 0.000000e+000 0.000000e+000 1.000000e+000
      outer loop
         vertex 1.250000e-001 2.570000e+001 3.875000e+001
         vertex 1.250000e+000 1.700000e+001 3.875000e+001
         vertex 6.650000e+001 3.440000e+001 3.875000e+001
      endloop
   endfacet
   facet normal 0.000000e+000 0.000000e+000 1.000000e+000
      outer loop
         vertex 6.650000e+001 3.440000e+001 3.875000e+001
         vertex 1.250000e+000 1.700000e+001 3.875000e+001
         vertex 3.250000e+000 1.550000e+001 3.875000e+001
      endloop
   endfacet
   facet normal 0.000000e+000 0.000000e+000 1.000000e+000
      outer loop
         vertex 6.650000e+001 3.440000e+001 3.875000e+001
         vertex 3.250000e+000 1.550000e+001 3.875000e+001
         vertex 6.637500e+001 2.570000e+001 3.875000e+001
      endloop
   endfacet
   facet normal 0.000000e+000 0.000000e+000 1.000000e+000
      outer loop
         vertex 6.637500e+001 2.570000e+001 3.875000e+001
         vertex 3.250000e+000 1.550000e+001 3.875000e+001
         vertex 6.525000e+001 1.700000e+001 3.875000e+001
      endloop
   endfacet
   facet normal -9.998919e-001 -1.470429e-002 0.000000e+000
      outer loop
         vertex 1.250000e+000 1.700000e+001 -1.387779e-014
         vertex 1.252935e+000 1.680045e+001 -1.387779e-014
         vertex 1.250000e+000 1.700000e+001 3.875000e+001
      endloop
   endfacet
   facet normal -9.998919e-001 -1.470429e-002 0.000000e+000
      outer loop
         vertex 1.250000e+000 1.700000e+001 3.875000e+001
         vertex 1.252935e+000 1.680045e+001 -1.387779e-014
         vertex 1.272059e+000 1.550000e+001 3.461397e+000
      endloop
   endfacet
   facet normal -9.998919e-001 -1.470429e-002 0.000000e+000
      outer loop
         vertex 1.252935e+000 1.680045e+001 3.875000e+001
         vertex 1.250000e+000 1.700000e+001 3.875000e+001
         vertex 1.272059e+000 1.550000e+001 3.528860e+001
      endloop
   endfacet
   facet normal -9.998919e-001 -1.470429e-002 0.000000e+000
      outer loop
         vertex 1.272059e+000 1.550000e+001 3.528860e+001
         vertex 1.250000e+000 1.700000e+001 3.875000e+001
         vertex 1.272059e+000 1.550000e+001 3.461397e+000
      endloop
   endfacet
   facet normal -9.998919e-001 -1.470429e-002 0.000000e+000
      outer loop
         vertex 1.272059e+000 1.550000e+001 3.528860e+001
         vertex 1.272059e+000 1.550000e+001 3.461397e+000
         vertex 1.500000e+000 7.970351e-019 3.568750e+001
      endloop
   endfacet
   facet normal -9.998919e-001 -1.470429e-002 0.000000e+000
      outer loop
         vertex 1.500000e+000 7.970351e-019 3.568750e+001
         vertex 1.272059e+000 1.550000e+001 3.461397e+000
         vertex 1.500000e+000 -2.869326e-017 3.062500e+000
      endloop
   endfacet
   facet normal 0.000000e+000 0.000000e+000 -1.000000e+000
      outer loop
         vertex 6.525000e+001 1.700000e+001 0.000000e+000
         vertex 6.524706e+001 1.680045e+001 0.000000e+000
         vertex 6.325000e+001 1.550000e+001 0.000000e+000
      endloop
   endfacet
   facet normal 0.000000e+000 0.000000e+000 -1.000000e+000
      outer loop
         vertex 6.325000e+001 1.550000e+001 0.000000e+000
         vertex 6.325000e+001 0.000000e+000 0.000000e+000
         vertex 3.250000e+000 0.000000e+000 0.000000e+000
      endloop
   endfacet
   facet normal 0.000000e+000 0.000000e+000 -1.000000e+000
      outer loop
         vertex 0.000000e+000 3.440000e+001 0.000000e+000
         vertex 6.650000e+001 3.440000e+001 0.000000e+000
         vertex 6.637500e+001 2.570000e+001 0.000000e+000
      endloop
   endfacet
   facet normal 0.000000e+000 0.000000e+000 -1.000000e+000
      outer loop
         vertex 3.250000e+000 0.000000e+000 0.000000e+000
         vertex 3.250000e+000 1.550000e+001 0.000000e+000
         vertex 6.325000e+001 1.550000e+001 0.000000e+000
      endloop
   endfacet
   facet normal 0.000000e+000 0.000000e+000 -1.000000e+000
      outer loop
         vertex 6.325000e+001 1.550000e+001 0.000000e+000
         vertex 3.250000e+000 1.550000e+001 0.000000e+000
         vertex 1.252935e+000 1.680045e+001 0.000000e+000
      endloop
   endfacet
   facet normal 0.000000e+000 0.000000e+000 -1.000000e+000
      outer loop
         vertex 6.325000e+001 1.550000e+001 0.000000e+000
         vertex 1.252935e+000 1.680045e+001 0.000000e+000
         vertex 1.250000e+000 1.700000e+001 0.000000e+000
      endloop
   endfacet
   facet normal 0.000000e+000 0.000000e+000 -1.000000e+000
      outer loop
         vertex 6.637500e+001 2.570000e+001 0.000000e+000
         vertex 6.525000e+001 1.700000e+001 0.000000e+000
         vertex 0.000000e+000 3.440000e+001 0.000000e+000
      endloop
   endfacet
   facet normal 0.000000e+000 0.000000e+000 -1.000000e+000
      outer loop
         vertex 0.000000e+000 3.440000e+001 0.000000e+000
         vertex 6.525000e+001 1.700000e+001 0.000000e+000
         vertex 6.325000e+001 1.550000e+001 0.000000e+000
      endloop
   endfacet
   facet normal 0.000000e+000 0.000000e+000 -1.000000e+000
      outer loop
         vertex 0.000000e+000 3.440000e+001 0.000000e+000
         vertex 6.325000e+001 1.550000e+001 0.000000e+000
         vertex 1.250000e-001 2.570000e+001 0.000000e+000
      endloop
   endfacet
   facet normal 0.000000e+000 0.000000e+000 -1.000000e+000
      outer loop
         vertex 1.250000e-001 2.570000e+001 0.000000e+000
         vertex 6.325000e+001 1.550000e+001 0.000000e+000
         vertex 1.250000e+000 1.700000e+001 0.000000e+000
      endloop
   endfacet
   facet normal -9.917428e-001 -1.282426e-001 0.000000e+000
      outer loop
         vertex 1.250000e-001 2.570000e+001 3.875000e+001
         vertex 1.250000e-001 2.570000e+001 -1.387779e-014
         vertex 1.250000e+000 1.700000e+001 3.875000e+001
      endloop
   endfacet
   facet normal -9.917428e-001 -1.282426e-001 0.000000e+000
      outer loop
         vertex 1.250000e+000 1.700000e+001 3.875000e+001
         vertex 1.250000e-001 2.570000e+001 -1.387779e-014
         vertex 1.250000e+000 1.700000e+001 -1.387779e-014
      endloop
   endfacet
   facet normal 9.917428e-001 -1.282426e-001 0.000000e+000
      outer loop
         vertex 6.525000e+001 1.700000e+001 -1.387779e-014
         vertex 6.637500e+001 2.570000e+001 -1.387779e-014
         vertex 6.525000e+001 1.700000e+001 3.875000e+001
      endloop
   endfacet
   facet normal 9.917428e-001 -1.282426e-001 0.000000e+000
      outer loop
         vertex 6.525000e+001 1.700000e+001 3.875000e+001
         vertex 6.637500e+001 2.570000e+001 -1.387779e-014
         vertex 6.637500e+001 2.570000e+001 3.875000e+001
      endloop
   endfacet
   facet normal 9.998968e-001 -1.436633e-002 0.000000e+000
      outer loop
         vertex 6.637500e+001 2.570000e+001 3.875000e+001
         vertex 6.637500e+001 2.570000e+001 -1.387779e-014
         vertex 6.650000e+001 3.440000e+001 3.875000e+001
      endloop
   endfacet
   facet normal 9.998968e-001 -1.436633e-002 0.000000e+000
      outer loop
         vertex 6.650000e+001 3.440000e+001 3.875000e+001
         vertex 6.637500e+001 2.570000e+001 -1.387779e-014
         vertex 6.650000e+001 3.440000e+001 -1.387779e-014
      endloop
   endfacet
   facet normal 0.000000e+000 1.000000e+000 0.000000e+000
      outer loop
         vertex 6.650000e+001 3.440000e+001 3.875000e+001
         vertex 6.650000e+001 3.440000e+001 0.000000e+000
         vertex 0.000000e+000 3.440000e+001 3.875000e+001
      endloop
   endfacet
   facet normal 0.000000e+000 1.000000e+000 0.000000e+000
      outer loop
         vertex 0.000000e+000 3.440000e+001 3.875000e+001
         vertex 6.650000e+001 3.440000e+001 0.000000e+000
         vertex 0.000000e+000 3.440000e+001 0.000000e+000
      endloop
   endfacet
   facet normal -9.998968e-001 -1.436633e-002 0.000000e+000
      outer loop
         vertex 0.000000e+000 3.440000e+001 3.875000e+001
         vertex 0.000000e+000 3.440000e+001 -1.387779e-014
         vertex 1.250000e-001 2.570000e+001 3.875000e+001
      endloop
   endfacet
   facet normal -9.998968e-001 -1.436633e-002 0.000000e+000
      outer loop
         vertex 1.250000e-001 2.570000e+001 3.875000e+001
         vertex 0.000000e+000 3.440000e+001 -1.387779e-014
         vertex 1.250000e-001 2.570000e+001 -1.387779e-014
      endloop
   endfacet
   facet normal -8.682432e-001 0.000000e+000 -4.961389e-001
      outer loop
         vertex 3.250000e+000 1.550000e+001 -1.084202e-016
         vertex 3.250000e+000 0.000000e+000 -1.084202e-016
         vertex 1.272059e+000 1.550000e+001 3.461397e+000
      endloop
   endfacet
   facet normal -8.682432e-001 0.000000e+000 -4.961389e-001
      outer loop
         vertex 1.272059e+000 1.550000e+001 3.461397e+000
         vertex 3.250000e+000 0.000000e+000 -1.084202e-016
         vertex 1.500000e+000 0.000000e+000 3.062500e+000
      endloop
   endfacet
   facet normal 8.682432e-001 0.000000e+000 -4.961389e-001
      outer loop
         vertex 6.522794e+001 1.550000e+001 3.461397e+000
         vertex 6.500001e+001 0.000000e+000 3.062500e+000
         vertex 6.325000e+001 1.550000e+001 -3.469447e-015
      endloop
   endfacet
   facet normal 8.682432e-001 0.000000e+000 -4.961389e-001
      outer loop
         vertex 6.325000e+001 1.550000e+001 -3.469447e-015
         vertex 6.500001e+001 0.000000e+000 3.062500e+000
         vertex 6.325000e+001 0.000000e+000 -3.469447e-015
      endloop
   endfacet
   facet normal -5.209459e-001 -8.000000e-001 -2.976834e-001
      outer loop
         vertex 1.252935e+000 1.680045e+001 -4.336809e-016
         vertex 3.250000e+000 1.550000e+001 -1.084202e-016
         vertex 1.272059e+000 1.550000e+001 3.461397e+000
      endloop
   endfacet
   facet normal 5.209459e-001 -8.000000e-001 -2.976834e-001
      outer loop
         vertex 6.522794e+001 1.550000e+001 3.461397e+000
         vertex 6.325000e+001 1.550000e+001 4.119968e-015
         vertex 6.524706e+001 1.680045e+001 3.035766e-015
      endloop
   endfacet
   facet normal 8.682432e-001 0.000000e+000 4.961389e-001
      outer loop
         vertex 6.325000e+001 1.550000e+001 3.875000e+001
         vertex 6.325000e+001 -6.938894e-015 3.875000e+001
         vertex 6.522794e+001 1.550000e+001 3.528860e+001
      endloop
   endfacet
   facet normal 8.682432e-001 0.000000e+000 4.961389e-001
      outer loop
         vertex 6.522794e+001 1.550000e+001 3.528860e+001
         vertex 6.325000e+001 -6.938894e-015 3.875000e+001
         vertex 6.500001e+001 -6.938894e-015 3.568750e+001
      endloop
   endfacet
   facet normal -8.682432e-001 0.000000e+000 4.961389e-001
      outer loop
         vertex 1.272059e+000 1.550000e+001 3.528860e+001
         vertex 1.500000e+000 -6.938894e-015 3.568750e+001
         vertex 3.250000e+000 1.550000e+001 3.875000e+001
      endloop
   endfacet
   facet normal -8.682432e-001 0.000000e+000 4.961389e-001
      outer loop
         vertex 3.250000e+000 1.550000e+001 3.875000e+001
         vertex 1.500000e+000 -6.938894e-015 3.568750e+001
         vertex 3.250000e+000 -6.938894e-015 3.875000e+001
      endloop
   endfacet
   facet normal -5.209459e-001 -8.000000e-001 2.976834e-001
      outer loop
         vertex 1.272059e+000 1.550000e+001 3.528860e+001
         vertex 3.250000e+000 1.550000e+001 3.875000e+001
         vertex 1.252935e+000 1.680045e+001 3.875000e+001
      endloop
   endfacet
   facet normal 5.209459e-001 -8.000000e-001 2.976834e-001
      outer loop
         vertex 6.524706e+001 1.680045e+001 3.875000e+001
         vertex 6.325000e+001 1.550000e+001 3.875000e+001
         vertex 6.522794e+001 1.550000e+001 3.528860e+001
      endloop
   endfacet
endsolid